{
  "accessors": [
    {
      "bufferView": 1,
      "componentType": 5126,
      "count": 3186,
      "max": [
        0.68917065858840942,
        2.41792893409729,
        2.9745843410491943
      ],
      "min": [
        -4.3089766502380371,
        0.8237001895904541,
        -2.9745843410491943
      ],
      "type": "VEC3"
    },
    {
      "bufferView": 1,
      "byteOffset": 38232,
      "componentType": 5126,
      "count": 3186,
      "max": [
        0.043702550232410431,
        0.13724537193775177,
        0.99993789196014404
      ],
      "min": [
        -0.043702561408281326,
        0.010497977025806904,
        -0.99993789196014404
      ],
      "type": "VEC3"
    },
    {
      "bufferView": 0,
      "componentType": 5125,
      "count": 3186,
      "max": [
        3185
      ],
      "min": [
        0
      ],
      "type": "SCALAR"
    },
    {
      "bufferView": 1,
      "byteOffset": 76464,
      "componentType": 5126,
      "count": 1092,
      "max": [
        5.3521862030029297,
        3.7706055641174316,
        2.6558394432067871
      ],
      "min": [
        1.6079833507537842,
        2.7443528175354004,
        -2.6558394432067871
      ],
      "type": "VEC3"
    },
    {
      "bufferView": 1,
      "byteOffset": 89568,
      "componentType": 5126,
      "count": 1092,
      "max": [
        1,
        1,
        0.99915719032287598
      ],
      "min": [
        -1,
        -1,
        -0.99915719032287598
      ],
      "type": "VEC3"
    },
    {
      "bufferView": 0,
      "byteOffset": 12744,
      "componentType": 5125,
      "count": 6528,
      "max": [
        1091
      ],
      "min": [
        0
      ],
      "type": "SCALAR"
    },
    {
      "bufferView": 1,
      "byteOffset": 102672,
      "componentType": 5126,
      "count": 3668,
      "max": [
        3.5136861801147461,
        -1.6458214521408081,
        2.492995023727417
      ],
      "min": [
        -3.6518480777740479,
        -3.7779240608215332,
        -2.492995023727417
      ],
      "type": "VEC3"
    },
    {
      "bufferView": 1,
      "byteOffset": 146688,
      "componentType": 5126,
      "count": 3668,
      "max": [
        0.99819779396057129,
        0.99824917316436768,
        0.9999992847442627
      ],
      "min": [
        -0.99819564819335938,
        -0.99824601411819458,
        -0.9999992847442627
      ],
      "type": "VEC3"
    },
    {
      "bufferView": 0,
      "byteOffset": 38856,
      "componentType": 5125,
      "count": 21504,
      "max": [
        3667
      ],
      "min": [
        0
      ],
      "type": "SCALAR"
    },
    {
      "bufferView": 1,
      "byteOffset": 190704,
      "componentType": 5126,
      "count": 1108,
      "max": [
        2.9062206745147705,
        -2.2448713779449463,
        2.4444565773010254
      ],
      "min": [
        -3.0410795211791992,
        -3.1623032093048096,
        -2.4444565773010254
      ],
      "type": "VEC3"
    },
    {
      "bufferView": 1,
      "byteOffset": 204000,
      "componentType": 5126,
      "count": 1108,
      "max": [
        0.97573798894882202,
        0.99404162168502808,
        0.99999260902404785
      ],
      "min": [
        -0.97286695241928101,
        -0.97785019874572754,
        -0.99999260902404785
      ],
      "type": "VEC3"
    },
    {
      "bufferView": 0,
      "byteOffset": 124872,
      "componentType": 5125,
      "count": 6144,
      "max": [
        1107
      ],
      "min": [
        0
      ],
      "type": "SCALAR"
    },
    {
      "bufferView": 1,
      "byteOffset": 217296,
      "componentType": 5126,
      "count": 674,
      "max": [
        5.6210694313049316,
        -0.085970655083656311,
        0.91476583480834961
      ],
      "min": [
        4.8713970184326172,
        -1.9914085865020752,
        -0.91476583480834961
      ],
      "type": "VEC3"
    },
    {
      "bufferView": 1,
      "byteOffset": 225384,
      "componentType": 5126,
      "count": 674,
      "max": [
        0.99942195415496826,
        0.99951827526092529,
        1
      ],
      "min": [
        -0.99953055381774902,
        -0.99999117851257324,
        -1
      ],
      "type": "VEC3"
    },
    {
      "bufferView": 0,
      "byteOffset": 149448,
      "componentType": 5125,
      "count": 4032,
      "max": [
        673
      ],
      "min": [
        0
      ],
      "type": "SCALAR"
    },
    {
      "bufferView": 1,
      "byteOffset": 233472,
      "componentType": 5126,
      "count": 2500,
      "max": [
        4.9564146995544434,
        -2.1645557880401611,
        2.8095517158508301
      ],
      "min": [
        -5.3729610443115234,
        -2.7477388381958008,
        -2.8095507621765137
      ],
      "type": "VEC3"
    },
    {
      "bufferView": 1,
      "byteOffset": 263472,
      "componentType": 5126,
      "count": 2500,
      "max": [
        0.99995875358581543,
        0.99997496604919434,
        0.99937963485717773
      ],
      "min": [
        -0.99961602687835693,
        -0.99893802404403687,
        -0.99937963485717773
      ],
      "type": "VEC3"
    },
    {
      "bufferView": 0,
      "byteOffset": 165576,
      "componentType": 5125,
      "count": 14976,
      "max": [
        2499
      ],
      "min": [
        0
      ],
      "type": "SCALAR"
    },
    {
      "bufferView": 1,
      "byteOffset": 293472,
      "componentType": 5126,
      "count": 1706,
      "max": [
        -5.8002028465270996,
        0.013565175235271454,
        0.98078805208206177
      ],
      "min": [
        -5.9549922943115234,
        -0.25526660680770874,
        -0.98078805208206177
      ],
      "type": "VEC3"
    },
    {
      "bufferView": 1,
      "byteOffset": 313944,
      "componentType": 5126,
      "count": 1706,
      "max": [
        0.99969303607940674,
        1,
        0.99999320507049561
      ],
      "min": [
        -1,
        -1,
        -0.99999308586120605
      ],
      "type": "VEC3"
    },
    {
      "bufferView": 0,
      "byteOffset": 225480,
      "componentType": 5125,
      "count": 9984,
      "max": [
        1705
      ],
      "min": [
        0
      ],
      "type": "SCALAR"
    },
    {
      "bufferView": 1,
      "byteOffset": 334416,
      "componentType": 5126,
      "count": 1524,
      "max": [
        5.043670654296875,
        -0.63363468647003174,
        2.4539799690246582
      ],
      "min": [
        4.5710034370422363,
        -2.102285623550415,
        -2.4539799690246582
      ],
      "type": "VEC3"
    },
    {
      "bufferView": 1,
      "byteOffset": 352704,
      "componentType": 5126,
      "count": 1524,
      "max": [
        0.99954164028167725,
        0.99875360727310181,
        0.99913918972015381
      ],
      "min": [
        -0.038026813417673111,
        -0.9987604022026062,
        -0.99913918972015381
      ],
      "type": "VEC3"
    },
    {
      "bufferView": 0,
      "byteOffset": 265416,
      "componentType": 5125,
      "count": 8640,
      "max": [
        1523
      ],
      "min": [
        0
      ],
      "type": "SCALAR"
    },
    {
      "bufferView": 1,
      "byteOffset": 370992,
      "componentType": 5126,
      "count": 762,
      "max": [
        -4.9424600601196289,
        -1.7550232410430908,
        2.1633322238922119
      ],
      "min": [
        -5.199282169342041,
        -2.102285623550415,
        -2.1633322238922119
      ],
      "type": "VEC3"
    },
    {
      "bufferView": 1,
      "byteOffset": 380136,
      "componentType": 5126,
      "count": 762,
      "max": [
        0.022431368008255959,
        0.99875360727310181,
        0.99913918972015381
      ],
      "min": [
        -0.9982418417930603,
        -0.9987604022026062,
        -0.99913918972015381
      ],
      "type": "VEC3"
    },
    {
      "bufferView": 0,
      "byteOffset": 299976,
      "componentType": 5125,
      "count": 4320,
      "max": [
        761
      ],
      "min": [
        0
      ],
      "type": "SCALAR"
    },
    {
      "bufferView": 1,
      "byteOffset": 389280,
      "componentType": 5126,
      "count": 14291,
      "max": [
        5.0984230041503906,
        3.1463198661804199,
        2.9789083003997803
      ],
      "min": [
        -5.8793153762817383,
        -2.7156517505645752,
        -2.9789085388183594
      ],
      "type": "VEC3"
    },
    {
      "bufferView": 1,
      "byteOffset": 560772,
      "componentType": 5126,
      "count": 14291,
      "max": [
        1,
        1,
        0.99999988079071045
      ],
      "min": [
        -0.99998533725738525,
        -1,
        -0.99999988079071045
      ],
      "type": "VEC3"
    },
    {
      "bufferView": 0,
      "byteOffset": 317256,
      "componentType": 5125,
      "count": 83808,
      "max": [
        14290
      ],
      "min": [
        0
      ],
      "type": "SCALAR"
    },
    {
      "bufferView": 1,
      "byteOffset": 732264,
      "componentType": 5126,
      "count": 2184,
      "max": [
        5.1104121208190918,
        0.13087676465511322,
        3.0057556629180908
      ],
      "min": [
        -5.8686923980712891,
        -0.64042788743972778,
        -3.0057556629180908
      ],
      "type": "VEC3"
    },
    {
      "bufferView": 1,
      "byteOffset": 758472,
      "componentType": 5126,
      "count": 2184,
      "max": [
        0.99817818403244019,
        0.82770019769668579,
        0.99999988079071045
      ],
      "min": [
        -0.99999916553497314,
        -0.48379203677177429,
        -0.99999988079071045
      ],
      "type": "VEC3"
    },
    {
      "bufferView": 0,
      "byteOffset": 652488,
      "componentType": 5125,
      "count": 12096,
      "max": [
        2183
      ],
      "min": [
        0
      ],
      "type": "SCALAR"
    },
    {
      "bufferView": 1,
      "byteOffset": 784680,
      "componentType": 5126,
      "count": 2197,
      "max": [
        4.7431826591491699,
        2.6134111881256104,
        2.873884916305542
      ],
      "min": [
        -5.7907609939575195,
        0.26602962613105774,
        -2.873884916305542
      ],
      "type": "VEC3"
    },
    {
      "bufferView": 1,
      "byteOffset": 811044,
      "componentType": 5126,
      "count": 2197,
      "max": [
        0.9899405837059021,
        1,
        0.99998867511749268
      ],
      "min": [
        -0.99907863140106201,
        -1,
        -0.99998867511749268
      ],
      "type": "VEC3"
    },
    {
      "bufferView": 0,
      "byteOffset": 700872,
      "componentType": 5125,
      "count": 12288,
      "max": [
        2196
      ],
      "min": [
        0
      ],
      "type": "SCALAR"
    }
  ],
  "asset": {
    "extras": {
      "author": "Al (https://sketchfab.com/lightningocelot)",
      "license": "CC-BY-4.0 (http://creativecommons.org/licenses/by/4.0/)",
      "source": "https://sketchfab.com/3d-models/mystery-machine-0749bee6cca248a3a35d78e7504cccfb",
      "title": "Mystery Machine"
    },
    "generator": "Sketchfab-7.13.0",
    "version": "2.0"
  },
  "bufferViews": [
    {
      "buffer": 0,
      "byteLength": 750024,
      "byteOffset": 0,
      "name": "floatBufferViews",
      "target": 34963
    },
    {
      "buffer": 0,
      "byteLength": 837408,
      "byteOffset": 750024,
      "byteStride": 12,
      "name": "floatBufferViews",
      "target": 34962
    }
  ],
  "buffers": [
    {
      "byteLength": 1587432,
      "uri": "scene.bin"
    }
  ],
  "materials": [
    {
      "doubleSided": true,
      "emissiveFactor": [
        0,
        0,
        0
      ],
      "name": "Orange",
      "pbrMetallicRoughness": {
        "baseColorFactor": [
          0.87410166886254015,
          0.13663218238983504,
          0.0082016450863976985,
          1
        ],
        "metallicFactor": 0,
        "roughnessFactor": 0.95770514946237739
      }
    },
    {
      "doubleSided": true,
      "emissiveFactor": [
        0,
        0,
        0
      ],
      "name": "Metal",
      "pbrMetallicRoughness": {
        "baseColorFactor": [
          0.80000000000000004,
          0.80000000000000004,
          0.80000000000000004,
          1
        ],
        "metallicFactor": 1,
        "roughnessFactor": 0.34927591463414637
      }
    },
    {
      "doubleSided": true,
      "emissiveFactor": [
        0,
        0,
        0
      ],
      "name": "Grey",
      "pbrMetallicRoughness": {
        "baseColorFactor": [
          0.0758955803843573,
          0.0758955803843573,
          0.0758955803843573,
          1
        ],
        "metallicFactor": 0,
        "roughnessFactor": 0.95770514946237739
      }
    },
    {
      "doubleSided": true,
      "emissiveFactor": [
        0,
        0,
        0
      ],
      "name": "Green",
      "pbrMetallicRoughness": {
        "baseColorFactor": [
          0.15643664819711967,
          0.88343654901193713,
          0.13149483780330412,
          1
        ],
        "metallicFactor": 0,
        "roughnessFactor": 0.95770514946237739
      }
    },
    {
      "doubleSided": true,
      "emissiveFactor": [
        1,
        1,
        1
      ],
      "name": "Whiteglow",
      "pbrMetallicRoughness": {
        "baseColorFactor": [
          0.80000000000000004,
          0.80000000000000004,
          0.80000000000000004,
          1
        ],
        "metallicFactor": 0,
        "roughnessFactor": 0.95770514946237739
      }
    },
    {
      "doubleSided": true,
      "emissiveFactor": [
        1,
        0,
        0
      ],
      "name": "material",
      "pbrMetallicRoughness": {
        "baseColorFactor": [
          0.26188917819271429,
          0.025788532234671369,
          0.025788532234671369,
          1
        ],
        "metallicFactor": 0,
        "roughnessFactor": 0.95770514946237739
      }
    },
    {
      "doubleSided": true,
      "emissiveFactor": [
        0,
        0,
        0
      ],
      "name": "Blue",
      "pbrMetallicRoughness": {
        "baseColorFactor": [
          0.18648417912592063,
          0.58460237713955709,
          1,
          1
        ],
        "metallicFactor": 0,
        "roughnessFactor": 0.95770514946237739
      }
    },
    {
      "doubleSided": true,
      "emissiveFactor": [
        0,
        0,
        0
      ],
      "name": "Black",
      "pbrMetallicRoughness": {
        "baseColorFactor": [
          0,
          0,
          0,
          1
        ],
        "metallicFactor": 0,
        "roughnessFactor": 0.95770514946237739
      }
    }
  ],
  "meshes": [
    {
      "name": "Plane.005_Orange_0",
      "primitives": [
        {
          "attributes": {
            "NORMAL": 1,
            "POSITION": 0
          },
          "indices": 2,
          "material": 0,
          "mode": 4
        }
      ]
    },
    {
      "name": "Plane.006_Metal_0",
      "primitives": [
        {
          "attributes": {
            "NORMAL": 4,
            "POSITION": 3
          },
          "indices": 5,
          "material": 1,
          "mode": 4
        }
      ]
    },
    {
      "name": "Plane.004_Grey_0",
      "primitives": [
        {
          "attributes": {
            "NORMAL": 7,
            "POSITION": 6
          },
          "indices": 8,
          "material": 2,
          "mode": 4
        }
      ]
    },
    {
      "name": "Plane.004_Green_0",
      "primitives": [
        {
          "attributes": {
            "NORMAL": 10,
            "POSITION": 9
          },
          "indices": 11,
          "material": 3,
          "mode": 4
        }
      ]
    },
    {
      "name": "Plane.003_Green_0",
      "primitives": [
        {
          "attributes": {
            "NORMAL": 13,
            "POSITION": 12
          },
          "indices": 14,
          "material": 3,
          "mode": 4
        }
      ]
    },
    {
      "name": "Plane.002_Metal_0",
      "primitives": [
        {
          "attributes": {
            "NORMAL": 16,
            "POSITION": 15
          },
          "indices": 17,
          "material": 1,
          "mode": 4
        }
      ]
    },
    {
      "name": "Plane.001_Metal_0",
      "primitives": [
        {
          "attributes": {
            "NORMAL": 19,
            "POSITION": 18
          },
          "indices": 20,
          "material": 1,
          "mode": 4
        }
      ]
    },
    {
      "name": "Plane.001_Whiteglow_0",
      "primitives": [
        {
          "attributes": {
            "NORMAL": 22,
            "POSITION": 21
          },
          "indices": 23,
          "material": 4,
          "mode": 4
        }
      ]
    },
    {
      "name": "Plane.001_Red_0",
      "primitives": [
        {
          "attributes": {
            "NORMAL": 25,
            "POSITION": 24
          },
          "indices": 26,
          "material": 5,
          "mode": 4
        }
      ]
    },
    {
      "name": "Plane_Blue_0",
      "primitives": [
        {
          "attributes": {
            "NORMAL": 28,
            "POSITION": 27
          },
          "indices": 29,
          "material": 6,
          "mode": 4
        }
      ]
    },
    {
      "name": "Plane_Green_0",
      "primitives": [
        {
          "attributes": {
            "NORMAL": 31,
            "POSITION": 30
          },
          "indices": 32,
          "material": 3,
          "mode": 4
        }
      ]
    },
    {
      "name": "Plane_Black_0",
      "primitives": [
        {
          "attributes": {
            "NORMAL": 34,
            "POSITION": 33
          },
          "indices": 35,
          "material": 7,
          "mode": 4
        }
      ]
    }
  ],
  "nodes": [
    {
      "children": [
        1
      ],
      "name": "RootNode (gltf orientation matrix)",
      "rotation": [
        -0.70710678118654746,
        -0,
        -0,
        0.70710678118654757
      ]
    },
    {
      "children": [
        2
      ],
      "name": "RootNode (model correction matrix)"
    },
    {
      "children": [
        3
      ],
      "matrix": [
        1,
        0,
        0,
        0,
        0,
        0,
        1,
        0,
        0,
        -1,
        0,
        0,
        0,
        0,
        0,
        1
      ],
      "name": "208d42317d34431a8cb3f291e20692cf.fbx"
    },
    {
      "children": [
        4,
        6,
        8,
        11,
        13,
        15,
        19
      ],
      "name": "RootNode"
    },
    {
      "children": [
        5
      ],
      "matrix": [
        78.008560180664062,
        0,
        0,
        0,
        0,
        78.008560180663025,
        1.27092080560468e-05,
        0,
        0,
        -1.27092080560468e-05,
        78.008560180663025,
        0,
        0,
        0,
        0,
        1
      ],
      "name": "Plane.005"
    },
    {
      "mesh": 0,
      "name": "Plane.005_Orange_0"
    },
    {
      "children": [
        7
      ],
      "matrix": [
        78.008560180664062,
        0,
        0,
        0,
        0,
        78.008560180663025,
        1.27092080560468e-05,
        0,
        0,
        -1.27092080560468e-05,
        78.008560180663025,
        0,
        -329.83914184570312,
        0,
        0,
        1
      ],
      "name": "Plane.006"
    },
    {
      "mesh": 1,
      "name": "Plane.006_Metal_0"
    },
    {
      "children": [
        9,
        10
      ],
      "matrix": [
        78.008560180664062,
        0,
        0,
        0,
        0,
        78.008560180663025,
        1.27092080560468e-05,
        0,
        0,
        -1.27092080560468e-05,
        78.008560180663025,
        0,
        0,
        0,
        0,
        1
      ],
      "name": "Plane.004"
    },
    {
      "mesh": 2,
      "name": "Plane.004_Grey_0"
    },
    {
      "mesh": 3,
      "name": "Plane.004_Green_0"
    },
    {
      "children": [
        12
      ],
      "matrix": [
        78.008560180664062,
        0,
        0,
        0,
        0,
        78.008560180663025,
        1.27092080560468e-05,
        0,
        0,
        -1.27092080560468e-05,
        78.008560180663025,
        0,
        0,
        0,
        0,
        1
      ],
      "name": "Plane.003"
    },
    {
      "mesh": 4,
      "name": "Plane.003_Green_0"
    },
    {
      "children": [
        14
      ],
      "matrix": [
        78.008560180664062,
        0,
        0,
        0,
        0,
        78.008560180663025,
        1.27092080560468e-05,
        0,
        0,
        -1.27092080560468e-05,
        78.008560180663025,
        0,
        0,
        0,
        0,
        1
      ],
      "name": "Plane.002"
    },
    {
      "mesh": 5,
      "name": "Plane.002_Metal_0"
    },
    {
      "children": [
        16,
        17,
        18
      ],
      "matrix": [
        78.008560180664062,
        0,
        0,
        0,
        0,
        78.008560180663025,
        1.27092080560468e-05,
        0,
        0,
        -1.27092080560468e-05,
        78.008560180663025,
        0,
        0,
        0,
        0,
        1
      ],
      "name": "Plane.001"
    },
    {
      "mesh": 6,
      "name": "Plane.001_Metal_0"
    },
    {
      "mesh": 7,
      "name": "Plane.001_Whiteglow_0"
    },
    {
      "mesh": 8,
      "name": "Plane.001_Red_0"
    },
    {
      "children": [
        20,
        21,
        22
      ],
      "matrix": [
        78.008560180664062,
        0,
        0,
        0,
        0,
        78.008560180663025,
        1.27092080560468e-05,
        0,
        0,
        -1.27092080560468e-05,
        78.008560180663025,
        0,
        0,
        0,
        0,
        1
      ],
      "name": "Plane"
    },
    {
      "mesh": 9,
      "name": "Plane_Blue_0"
    },
    {
      "mesh": 10,
      "name": "Plane_Green_0"
    },
    {
      "mesh": 11,
      "name": "Plane_Black_0"
    }
  ],
  "scene": 0,
  "scenes": [
    {
      "name": "OSG_Scene",
      "nodes": [
        0
      ]
    }
  ]
}

